<?xml version="1.0" encoding="utf-8"?>
<svg viewBox="0 0 498.201 247.602" xmlns="http://www.w3.org/2000/svg">
  <path class="st0" d="M 323.19 58.952 C 321.746 58.011 320.612 57.099 321.06 54.943 C 321.401 53.282 321.425 51.68 322.495 50.159 C 326.977 43.769 335.664 40.135 342.898 42.35 C 345.612 43.18 348.172 45.009 350.375 46.883 C 353.561 49.597 356.262 52.869 359.355 55.705 C 362.035 58.164 365.051 59.735 368.881 60.459 C 372.554 61.154 375.821 60.277 379.259 59.983 C 380.813 59.851 381.653 59.033 382.241 57.427 C 383.507 53.968 385.214 50.675 386.663 47.279 C 390.566 38.145 394.426 28.998 398.392 19.652 C 403.619 19.652 408.933 19.604 414.24 19.72 C 414.802 19.733 415.578 20.614 415.862 21.266 C 417.874 25.879 419.777 30.54 422.104 36.104 C 423.204 34.672 423.962 33.514 424.887 32.508 C 434.57 22.008 446.818 17.939 460.813 18.054 C 463.228 18.071 465.653 17.244 468.26 16.776 C 468.098 16.588 468.255 16.69 468.247 16.771 C 467.928 19.336 469.124 20.912 471.136 22.48 C 473.478 24.304 475.774 26.361 476.584 29.548 C 476.899 30.783 477.931 31.823 478.506 33.011 C 478.884 33.795 479.038 34.686 479.409 35.921 C 478.574 35.695 478.173 35.588 477.999 35.542 C 477.475 36.271 476.994 37.476 476.55 37.459 C 475.179 37.417 473.375 37.332 472.567 36.479 C 471.425 35.277 470.641 35.956 469.652 36.164 C 469.926 36.977 469.955 38.128 470.518 38.528 C 471.48 39.214 472.775 39.432 473.968 39.862 C 472.474 41.306 470.875 41.536 469.73 40.279 C 467.684 38.038 464.77 37.792 462.198 36.79 C 460.899 36.283 459.48 35.939 458.094 35.844 C 457.235 35.789 456.042 36.096 455.526 36.696 C 454.857 37.476 454.631 38.69 454.431 39.756 C 454.398 39.946 455.364 40.48 455.926 40.608 C 461.593 41.907 467.266 43.158 472.942 44.425 C 474.237 44.715 475.559 44.927 476.814 45.332 C 479.644 46.239 480.606 48.556 480.117 51.505 C 479.937 52.566 480.337 53.695 478.915 53.656 C 476.792 53.597 474.263 54.522 472.886 51.918 C 471.749 49.771 469.708 48.685 467.404 48.616 C 462.918 48.484 458.912 49.788 454.78 51.453 C 451.479 52.783 447.645 52.988 444.015 53.217 C 442.196 53.332 441.006 53.818 440.368 55.36 C 435.503 67.119 425.406 71.822 414.134 75.103 C 407.257 77.1 400.223 77.385 393.155 77.684 C 388.308 77.888 384.593 80.129 381.807 84.156 C 379.165 87.969 376.512 91.824 373.401 95.24 C 371.246 97.61 368.425 99.449 365.669 101.146 C 364.489 101.874 363.697 102.33 363.956 103.765 C 364.241 105.338 363.556 106.164 362.073 106.739 C 359.615 107.693 357.246 108.874 354.745 110.003 C 355.559 112.972 356.356 115.869 357.298 119.311 C 352.624 118.267 350.971 115.26 349.731 111.886 C 346.14 112.482 342.624 113.308 339.063 113.616 C 328.664 114.506 318.499 113.628 309.063 108.652 C 301.638 104.733 295.655 99.198 292.166 91.525 C 290.237 87.283 288.938 82.665 287.987 78.085 C 287.076 73.696 286.526 69.134 286.62 64.661 C 286.811 55.369 288.286 46.2 292.998 38.013 C 299.422 26.851 309.067 20.124 321.81 17.555 C 327.058 16.494 332.238 17.172 337.428 16.764 C 339.749 16.579 341.807 17.385 344.001 17.584 C 348.228 17.964 359.79 21.892 363.215 24.256 C 363.552 24.487 363.918 24.972 363.918 25.339 C 363.961 32.359 363.948 39.376 363.948 46.333 C 362.938 46.589 362.09 46.802 361.191 47.033 C 358.026 43.168 354.115 40.202 349.509 38.221 C 346.566 36.956 343.601 35.63 340.516 34.81 C 331.259 32.347 320.68 36.969 315.867 45.447 C 314.78 47.364 313.587 49.183 313.473 51.659 C 313.371 53.857 311.836 55.957 311.539 58.181 C 310.06 69.202 310.869 79.798 318.448 88.783 C 321.363 92.233 325.162 94.457 329.537 95.454 C 332.112 96.043 334.863 96.583 337.428 96.272 C 339.532 96.016 342.003 96.42 343.852 94.576 C 344.308 94.121 345.548 94.572 346.276 94.261 C 351.218 92.156 356.266 90.106 359.07 85.089 C 359.692 83.976 359.657 82.485 359.849 81.157 C 360.557 76.253 363.406 72.423 365.967 68.649 C 363.748 67.123 361.365 65.709 359.261 63.962 C 357.515 62.51 356.1 60.656 354.532 58.986 C 351.346 55.591 348.491 51.765 344.87 48.915 C 340.725 45.652 335.716 45.668 330.909 47.935 C 327.25 49.66 323.986 51.846 323.577 56.417 C 323.514 57.112 323.616 57.818 323.638 58.518 C 323.501 58.649 323.343 58.803 323.19 58.952 Z M 417.575 68.167 C 413.917 59.229 410.375 50.589 406.64 41.467 C 402.886 50.64 399.333 59.327 395.717 68.167 C 403.12 68.167 410.133 68.167 417.575 68.167 Z" style=""/>
  <path class="st0" d="M 223.133 78.08 C 223.133 89.217 223.133 100.353 223.133 111.621 C 215.354 111.621 207.724 111.621 199.958 111.621 C 199.958 80.824 199.958 49.984 199.958 18.966 C 200.375 18.931 200.84 18.859 201.303 18.859 C 214.222 18.859 227.142 18.744 240.059 18.914 C 247.008 19.009 253.983 19.549 260.195 23.191 C 267.704 27.597 271.901 34.038 272.067 42.933 C 272.161 47.918 271.833 52.812 269.754 57.414 C 266.98 63.558 262.214 67.83 256.501 71.161 C 255.912 71.507 255.277 71.779 254.463 72.184 C 264.88 85.349 275.194 98.394 285.763 111.749 C 284.869 111.749 284.277 111.749 283.685 111.749 C 276.229 111.749 268.77 111.524 261.331 111.852 C 258.033 111.996 256.159 110.773 254.358 108.299 C 249.321 101.393 244.111 94.61 238.952 87.794 C 236.493 84.538 233.997 81.314 231.518 78.076 C 231.395 77.962 231.271 77.851 231.143 77.735 C 228.588 77.735 226.03 77.74 223.475 77.74 C 223.359 77.859 223.249 77.969 223.133 78.08 Z M 223.112 60.583 C 226.146 60.583 228.974 60.626 231.8 60.566 C 233.354 60.537 234.905 60.357 236.456 60.208 C 244.916 59.395 249.633 52.929 248.009 44.527 C 247.248 40.587 245.015 37.975 241.205 36.909 C 235.259 35.252 229.171 36.079 223.112 35.934 C 223.112 44.259 223.112 52.319 223.112 60.583 Z" style=""/>
  <path class="st0" d="M 103.898 18.931 C 111.784 18.931 119.426 18.931 127.27 18.931 C 127.27 19.757 127.27 20.516 127.27 21.27 C 127.27 39.516 127.189 57.759 127.333 76.006 C 127.362 79.759 127.896 83.589 128.778 87.245 C 130.197 93.111 134.645 95.812 140.306 96.339 C 144.963 96.77 149.521 96.293 153.278 92.825 C 155.707 90.588 157.01 87.824 157.53 84.73 C 158.033 81.736 158.318 78.669 158.332 75.631 C 158.404 57.53 158.364 39.424 158.364 21.321 C 158.364 20.559 158.364 19.8 158.364 18.949 C 166.199 18.949 173.843 18.949 181.634 18.949 C 181.673 19.459 181.749 19.996 181.749 20.533 C 181.754 39.773 181.763 59.011 181.749 78.251 C 181.746 85.382 180.557 92.228 176.847 98.479 C 172.125 106.428 164.785 110.485 156.099 112.563 C 149.529 114.135 142.781 114.361 136.169 113.747 C 127.249 112.916 118.745 110.361 112.316 103.471 C 108.244 99.109 105.64 93.92 104.766 88.024 C 104.2 84.194 103.94 80.287 103.924 76.411 C 103.838 58.096 103.886 39.781 103.886 21.462 C 103.898 20.691 103.898 19.919 103.898 18.931 Z" style=""/>
  <path class="st1" d="M 168.505 206.838 C 158.996 206.838 149.491 206.838 139.752 206.838 C 137.98 212.554 136.22 218.328 134.376 224.071 C 134.193 224.638 133.482 225.442 133.009 225.447 C 125.63 225.498 118.254 225.434 110.876 225.396 C 110.812 225.396 110.748 225.335 110.51 225.216 C 111.54 222.106 112.56 218.962 113.629 215.835 C 116.164 208.414 118.753 201.015 121.253 193.58 C 125.693 180.394 130.065 167.184 134.499 153.994 C 136.723 147.382 139.066 140.808 141.247 134.179 C 141.61 133.076 141.972 132.586 143.185 132.594 C 151.204 132.637 159.226 132.615 167.427 132.615 C 177.865 163.494 188.302 194.381 198.821 225.506 C 194.293 225.506 189.925 225.506 185.559 225.506 C 182.577 225.506 179.594 225.437 176.612 225.532 C 175.049 225.583 174.495 225.157 174.038 223.478 C 172.556 217.987 170.686 212.606 168.964 207.178 C 168.811 207.068 168.658 206.952 168.505 206.838 Z M 163.883 189.644 C 160.759 179.602 157.675 169.684 154.59 159.762 C 154.455 159.801 154.317 159.834 154.182 159.873 C 151.119 169.765 148.061 179.662 144.971 189.644 C 151.404 189.644 157.556 189.644 163.883 189.644 Z" style="fill: rgb(48, 175, 91);"/>
  <path class="st1" d="M 291.984 133.038 C 306.728 133.038 321.354 132.701 335.953 133.17 C 344.061 133.43 351.436 136.535 357.026 142.854 C 360.629 146.927 362.614 151.804 363.092 157.129 C 363.662 163.537 363.258 169.884 360.697 175.981 C 358.162 182.022 353.83 186.35 348.437 189.793 C 342.455 193.609 335.829 195.135 328.826 195.229 C 324.365 195.289 319.905 195.241 315.249 195.241 C 315.249 205.377 315.249 215.349 315.249 225.408 C 307.406 225.408 299.759 225.408 291.98 225.408 C 291.984 194.568 291.984 163.724 291.984 133.038 Z M 315.292 177.962 C 319.637 177.745 323.841 177.808 327.966 177.263 C 333.155 176.577 337.278 173.961 338.685 168.61 C 339.353 166.064 339.507 163.239 339.222 160.614 C 338.753 156.307 336.363 153.188 332.145 151.608 C 326.667 149.555 321.001 150.296 315.292 150.083 C 315.292 159.392 315.292 168.449 315.292 177.962 Z" style="fill: rgb(48, 175, 91);"/>
  <path class="st1" d="M 231.297 195.241 C 231.297 205.445 231.297 215.362 231.297 225.396 C 223.53 225.396 215.883 225.396 208.078 225.396 C 208.078 194.535 208.078 163.639 208.078 132.62 C 213.944 132.62 219.76 132.615 225.575 132.62 C 232.745 132.625 239.924 132.475 247.089 132.692 C 254.37 132.914 261.408 134.269 267.725 138.299 C 273.771 142.155 277.448 147.659 278.73 154.56 C 280.046 161.637 279.638 168.714 276.957 175.53 C 274.074 182.866 268.621 187.778 261.842 191.326 C 256.726 194.006 251.157 195.144 245.394 195.229 C 240.78 195.297 236.166 195.241 231.297 195.241 Z M 231.368 177.97 C 235.791 177.736 240.137 177.808 244.383 177.199 C 249.21 176.51 253.215 174.051 254.562 169.063 C 255.316 166.259 255.533 163.145 255.209 160.256 C 254.737 156.03 252.202 153.048 248.068 151.544 C 242.646 149.568 237.039 150.287 231.373 150.083 C 231.368 159.344 231.368 168.398 231.368 177.97 Z" style="fill: rgb(48, 175, 91);"/>
  <path class="st0" d="M 44.085 36.406 C 35.219 36.406 26.357 36.406 17.364 36.406 C 17.364 30.544 17.364 24.831 17.364 18.987 C 43.322 18.987 69.325 18.987 95.441 18.987 C 95.441 24.729 95.441 30.438 95.441 36.343 C 86.308 36.343 77.259 36.343 68.099 36.343 C 68.099 61.504 68.099 86.474 68.099 111.6 C 60.295 111.6 52.605 111.6 44.672 111.6 C 44.672 110.88 44.672 110.122 44.672 109.359 C 44.672 85.932 44.672 62.505 44.668 39.078 C 44.668 38.302 44.591 37.527 44.549 36.752 C 44.395 36.637 44.238 36.522 44.085 36.406 Z" style=""/>
  <path class="st0" d="M 425.265 87.504 C 414.053 87.504 403.056 87.521 392.057 87.478 C 390.868 87.475 390.31 87.883 389.88 88.961 C 387.822 94.159 385.717 99.343 383.537 104.489 C 383.28 105.094 382.441 105.857 381.862 105.866 C 376.128 105.968 370.39 105.929 364.203 105.929 C 364.834 105.474 365.102 105.205 365.422 105.056 C 373.074 101.474 378.122 95.21 382.45 88.288 C 385.525 83.376 389.841 81.093 395.572 81.054 C 403.862 81.003 412.024 79.947 419.872 77.152 C 425.32 75.214 430.433 72.614 434.727 68.627 C 434.919 68.448 435.192 68.363 435.686 68.09 C 441.058 80.683 446.383 93.166 451.816 105.908 C 445.634 105.908 439.763 105.943 433.892 105.854 C 433.346 105.845 432.541 105.18 432.312 104.631 C 429.927 98.978 427.626 93.277 425.265 87.504 Z" style=""/>
  <path class="st2" d="M 323.19 58.952 C 323.343 58.798 323.501 58.649 323.654 58.497 C 323.709 58.705 323.77 58.918 323.824 59.126 C 323.616 59.072 323.403 59.011 323.19 58.952 Z" style=""/>
  <path class="st3" d="M 44.085 36.406 C 44.238 36.522 44.395 36.637 44.549 36.748 C 44.395 36.637 44.238 36.522 44.085 36.406 Z" style=""/>
  <path class="st3" d="M 223.133 78.08 C 223.245 77.969 223.359 77.854 223.47 77.743 C 223.359 77.859 223.249 77.969 223.133 78.08 Z" style=""/>
  <path class="st3" d="M 231.139 77.743 C 231.262 77.859 231.385 77.969 231.513 78.085 C 231.39 77.969 231.262 77.854 231.139 77.743 Z" style=""/>
  <path class="st4" d="M 168.505 206.838 C 168.658 206.952 168.816 207.068 168.97 207.183 C 168.811 207.068 168.658 206.952 168.505 206.838 Z" style="fill: rgb(236, 236, 236);"/>
</svg>